<svg width="72" height="68" viewBox="0 0 72 68" fill="none" xmlns="http://www.w3.org/2000/svg">
<g filter="url(#filter0_d_34_185)">
<path d="M4 31.2683C4 34.8739 7.37142 38.3318 13.3726 40.8813C19.3737 43.4308 27.5131 44.8632 36 44.8632C44.4869 44.8632 52.6263 43.4308 58.6274 40.8813C64.6286 38.3318 68 34.8739 68 31.2683L36 31.2683L4 31.2683Z" fill="white"/>
<path d="M68 31.4948C68 23.1419 64.6286 15.1311 58.6274 9.22463C52.6263 3.3182 44.4869 6.3063e-07 36 0C27.5131 -6.3063e-07 19.3737 3.3182 13.3726 9.22462C7.37142 15.1311 4 23.1419 4 31.4948L36 31.4948H68Z" fill="white"/>
<path d="M62.8571 29.5818C62.8571 22.9803 60.0275 16.6491 54.9909 11.9812C49.9542 7.31318 43.123 4.69074 36 4.69073C28.877 4.69073 22.0458 7.31318 17.0091 11.9812C11.9724 16.6491 9.14285 22.9803 9.14285 29.5818L36 29.5818H62.8571Z" fill="black"/>
<path d="M9.14287 29.3278C9.14287 32.0897 11.9725 34.7384 17.0091 36.6914C22.0458 38.6443 28.877 39.7415 36 39.7415C43.123 39.7415 49.9542 38.6443 54.9909 36.6914C60.0276 34.7384 62.8571 32.0897 62.8571 29.3278L36 29.3278L9.14287 29.3278Z" fill="black"/>
<ellipse cx="10.5827" cy="8.76928" rx="10.5827" ry="8.76928" transform="matrix(-0.91528 0.402818 -0.304805 -0.952415 59.8005 28.7659)" fill="white"/>
<ellipse cx="9.85261" cy="8.28848" rx="9.85261" ry="8.28848" transform="matrix(0.947524 0.319684 -0.238275 0.971198 17.6642 14.0118)" fill="white"/>
</g>
<g filter="url(#filter1_d_34_185)">
<path d="M14.942 59.567V49.3852H19.3567C20.1323 49.3852 20.7836 49.4896 21.3106 49.6984C21.8409 49.9072 22.2403 50.2022 22.5087 50.5834C22.7805 50.9645 22.9164 51.4136 22.9164 51.9307C22.9164 52.3052 22.8335 52.6466 22.6678 52.9548C22.5054 53.263 22.2767 53.5216 21.9817 53.7304C21.6867 53.9359 21.3421 54.0784 20.9476 54.1579V54.2574C21.3851 54.2739 21.7829 54.385 22.1408 54.5905C22.4988 54.7926 22.7838 55.0727 22.9959 55.4307C23.2081 55.7853 23.3141 56.2029 23.3141 56.6835C23.3141 57.2403 23.1683 57.7358 22.8766 58.17C22.5883 58.6042 22.1773 58.9456 21.6437 59.1941C21.11 59.4427 20.4737 59.567 19.7346 59.567H14.942ZM17.7062 57.3596H18.9988C19.4628 57.3596 19.8108 57.2735 20.0428 57.1011C20.2748 56.9254 20.3908 56.6669 20.3908 56.3255C20.3908 56.0869 20.3361 55.8847 20.2268 55.719C20.1174 55.5533 19.9616 55.4273 19.7594 55.3412C19.5606 55.255 19.3203 55.2119 19.0385 55.2119H17.7062V57.3596ZM17.7062 53.5017H18.8397C19.0816 53.5017 19.2954 53.4636 19.481 53.3873C19.6666 53.3111 19.8108 53.2017 19.9135 53.0592C20.0196 52.9134 20.0726 52.7361 20.0726 52.5272C20.0726 52.2124 19.9599 51.9721 19.7346 51.8064C19.5092 51.6373 19.2242 51.5528 18.8795 51.5528H17.7062V53.5017ZM30.5577 49.3852V59.567H27.7935V49.3852H30.5577ZM38.0126 59.567H35.0297L38.3905 49.3852H42.1689L45.5297 59.567H42.5467L40.3194 52.1892H40.2399L38.0126 59.567ZM37.4558 55.55H43.0638V57.6182H37.4558V55.55ZM55.1025 52.567C55.076 52.2356 54.9517 51.9771 54.7296 51.7914C54.5108 51.6058 54.1778 51.513 53.7303 51.513C53.4453 51.513 53.2116 51.5478 53.0293 51.6174C52.8503 51.6837 52.7178 51.7749 52.6316 51.8909C52.5454 52.0069 52.5007 52.1395 52.4974 52.2886C52.4907 52.4112 52.5123 52.5223 52.562 52.6217C52.615 52.7178 52.6979 52.8057 52.8106 52.8852C52.9233 52.9614 53.0674 53.031 53.2431 53.094C53.4188 53.157 53.6276 53.2133 53.8695 53.263L54.7047 53.442C55.2682 53.5613 55.7504 53.7188 56.1515 53.9143C56.5525 54.1099 56.8806 54.3402 57.1358 54.6054C57.3911 54.8672 57.5783 55.1622 57.6976 55.4903C57.8203 55.8184 57.8832 56.1764 57.8866 56.5642C57.8832 57.2337 57.7159 57.8004 57.3844 58.2645C57.053 58.7285 56.579 59.0815 55.9626 59.3234C55.3494 59.5654 54.6119 59.6863 53.7502 59.6863C52.8653 59.6863 52.093 59.5554 51.4334 59.2936C50.7772 59.0317 50.2668 58.629 49.9022 58.0855C49.5409 57.5386 49.3586 56.8393 49.3553 55.9875H51.9803C51.9969 56.299 52.0748 56.5609 52.214 56.773C52.3532 56.9851 52.5487 57.1459 52.8006 57.2552C53.0558 57.3646 53.3591 57.4193 53.7104 57.4193C54.0054 57.4193 54.2523 57.3828 54.4512 57.3099C54.6501 57.237 54.8009 57.1359 54.9036 57.0066C55.0063 56.8774 55.0594 56.7299 55.0627 56.5642C55.0594 56.4084 55.008 56.2725 54.9086 56.1565C54.8125 56.0372 54.6534 55.9311 54.4313 55.8383C54.2092 55.7422 53.9093 55.6527 53.5314 55.5699L52.5172 55.3511C51.6157 55.1556 50.9048 54.8291 50.3844 54.3717C49.8674 53.911 49.6105 53.2829 49.6138 52.4875C49.6105 51.8412 49.7829 51.2761 50.1309 50.7922C50.4822 50.3049 50.9678 49.9254 51.5876 49.6537C52.2107 49.3819 52.9249 49.246 53.7303 49.246C54.5523 49.246 55.2632 49.3835 55.8631 49.6586C56.463 49.9337 56.9254 50.3215 57.2502 50.822C57.5783 51.3191 57.744 51.9008 57.7474 52.567H55.1025Z" fill="black"/>
</g>
<defs>
<filter id="filter0_d_34_185" x="0" y="0" width="72" height="52.8632" filterUnits="userSpaceOnUse" color-interpolation-filters="sRGB">
<feFlood flood-opacity="0" result="BackgroundImageFix"/>
<feColorMatrix in="SourceAlpha" type="matrix" values="0 0 0 0 0 0 0 0 0 0 0 0 0 0 0 0 0 0 127 0" result="hardAlpha"/>
<feOffset dy="4"/>
<feGaussianBlur stdDeviation="2"/>
<feComposite in2="hardAlpha" operator="out"/>
<feColorMatrix type="matrix" values="0 0 0 0 0 0 0 0 0 0 0 0 0 0 0 0 0 0 0.25 0"/>
<feBlend mode="normal" in2="BackgroundImageFix" result="effect1_dropShadow_34_185"/>
<feBlend mode="normal" in="SourceGraphic" in2="effect1_dropShadow_34_185" result="shape"/>
</filter>
<filter id="filter1_d_34_185" x="10.942" y="49.246" width="50.9446" height="18.4403" filterUnits="userSpaceOnUse" color-interpolation-filters="sRGB">
<feFlood flood-opacity="0" result="BackgroundImageFix"/>
<feColorMatrix in="SourceAlpha" type="matrix" values="0 0 0 0 0 0 0 0 0 0 0 0 0 0 0 0 0 0 127 0" result="hardAlpha"/>
<feOffset dy="4"/>
<feGaussianBlur stdDeviation="2"/>
<feComposite in2="hardAlpha" operator="out"/>
<feColorMatrix type="matrix" values="0 0 0 0 0 0 0 0 0 0 0 0 0 0 0 0 0 0 0.25 0"/>
<feBlend mode="normal" in2="BackgroundImageFix" result="effect1_dropShadow_34_185"/>
<feBlend mode="normal" in="SourceGraphic" in2="effect1_dropShadow_34_185" result="shape"/>
</filter>
</defs>
</svg>
