<svg width="75" height="65" viewBox="0 0 75 65" fill="none" xmlns="http://www.w3.org/2000/svg">
<g filter="url(#filter0_d_34_185)">
<path d="M4 28.863C4 32.1912 7.52945 35.3832 13.8119 37.7366C20.0944 40.09 28.6152 41.4121 37.5 41.4121C46.3848 41.4121 54.9056 40.09 61.1881 37.7366C67.4705 35.3832 71 32.1912 71 28.863L37.5 28.863L4 28.863Z" fill="white"/>
<path d="M71 29.0722C71 21.3617 67.4705 13.9671 61.1881 8.51504C54.9056 3.06295 46.3848 5.8212e-07 37.5 0C28.6152 -5.8212e-07 20.0944 3.06295 13.8119 8.51504C7.52946 13.9671 4 21.3617 4 29.0722L37.5 29.0722H71Z" fill="white"/>
<path d="M65.6161 27.3063C65.6161 21.2126 62.6539 15.3684 57.3811 11.0595C52.1083 6.75062 44.9569 4.3299 37.5 4.3299C30.0432 4.32989 22.8917 6.75061 17.6189 11.0595C12.3462 15.3684 9.38394 21.2126 9.38394 27.3063L37.5 27.3063H65.6161Z" fill="black"/>
<path d="M9.38395 27.0718C9.38395 29.6212 12.3462 32.0662 17.619 33.8689C22.8917 35.6716 30.0432 36.6844 37.5 36.6844C44.9569 36.6844 52.1083 35.6716 57.3811 33.8689C62.6539 32.0662 65.6161 29.6212 65.6161 27.0718L37.5 27.0718L9.38395 27.0718Z" fill="black"/>
<ellipse cx="10.8769" cy="8.20164" rx="10.8769" ry="8.20164" transform="matrix(-0.932266 0.361774 -0.341177 -0.939999 62.4162 26.5531)" fill="white"/>
<ellipse cx="10.1965" cy="7.71282" rx="10.1965" ry="7.71282" transform="matrix(0.958486 0.285141 -0.268062 0.963402 18.3047 12.9339)" fill="white"/>
</g>
<g filter="url(#filter1_d_34_185)">
<path d="M15.4241 56.0619V45.88H19.8389C20.6144 45.88 21.2657 45.9844 21.7927 46.1933C22.323 46.4021 22.7224 46.697 22.9909 47.0782C23.2626 47.4593 23.3985 47.9084 23.3985 48.4255C23.3985 48.8 23.3157 49.1414 23.15 49.4496C22.9876 49.7579 22.7589 50.0164 22.4639 50.2252C22.1689 50.4307 21.8242 50.5732 21.4298 50.6528V50.7522C21.8673 50.7688 22.265 50.8798 22.623 51.0853C22.9809 51.2875 23.266 51.5675 23.4781 51.9255C23.6902 52.2801 23.7963 52.6977 23.7963 53.1783C23.7963 53.7352 23.6504 54.2307 23.3588 54.6648C23.0704 55.099 22.6594 55.4404 22.1258 55.689C21.5922 55.9376 20.9558 56.0619 20.2167 56.0619H15.4241ZM18.1883 53.8545H19.4809C19.9449 53.8545 20.2929 53.7683 20.525 53.5959C20.757 53.4203 20.873 53.1618 20.873 52.8204C20.873 52.5817 20.8183 52.3796 20.7089 52.2138C20.5995 52.0481 20.4438 51.9222 20.2416 51.836C20.0427 51.7498 19.8024 51.7067 19.5207 51.7067H18.1883V53.8545ZM18.1883 49.9965H19.3218C19.5638 49.9965 19.7776 49.9584 19.9632 49.8822C20.1488 49.8059 20.2929 49.6966 20.3957 49.554C20.5018 49.4082 20.5548 49.2309 20.5548 49.0221C20.5548 48.7072 20.4421 48.4669 20.2167 48.3012C19.9913 48.1322 19.7063 48.0477 19.3616 48.0477H18.1883V49.9965ZM31.0399 45.88V56.0619H28.2757V45.88H31.0399ZM38.4948 56.0619H35.5118L38.8726 45.88H42.651L46.0118 56.0619H43.0289L40.8016 48.684H40.722L38.4948 56.0619ZM37.938 52.0448H43.5459V54.113H37.938V52.0448ZM55.5846 49.0619C55.5581 48.7304 55.4338 48.4719 55.2117 48.2863C54.993 48.1007 54.6599 48.0079 54.2125 48.0079C53.9274 48.0079 53.6938 48.0427 53.5115 48.1123C53.3325 48.1786 53.1999 48.2697 53.1137 48.3857C53.0276 48.5017 52.9828 48.6343 52.9795 48.7834C52.9729 48.9061 52.9944 49.0171 53.0441 49.1165C53.0972 49.2127 53.18 49.3005 53.2927 49.38C53.4054 49.4563 53.5496 49.5259 53.7252 49.5888C53.9009 49.6518 54.1097 49.7082 54.3517 49.7579L55.1869 49.9369C55.7503 50.0562 56.2326 50.2136 56.6336 50.4092C57.0347 50.6047 57.3628 50.8351 57.618 51.1002C57.8732 51.362 58.0605 51.657 58.1798 51.9852C58.3024 52.3133 58.3654 52.6712 58.3687 53.059C58.3654 53.7285 58.198 54.2953 57.8666 54.7593C57.5351 55.2233 57.0612 55.5763 56.4447 55.8183C55.8315 56.0602 55.0941 56.1812 54.2323 56.1812C53.3474 56.1812 52.5751 56.0503 51.9156 55.7884C51.2593 55.5266 50.7489 55.1239 50.3843 54.5803C50.0231 54.0334 49.8408 53.3341 49.8375 52.4823H52.4625C52.479 52.7939 52.5569 53.0557 52.6961 53.2678C52.8353 53.4799 53.0309 53.6407 53.2828 53.7501C53.538 53.8594 53.8412 53.9141 54.1926 53.9141C54.4875 53.9141 54.7345 53.8777 54.9333 53.8048C55.1322 53.7318 55.283 53.6308 55.3858 53.5015C55.4885 53.3722 55.5415 53.2247 55.5448 53.059C55.5415 52.9032 55.4902 52.7674 55.3907 52.6513C55.2946 52.532 55.1355 52.426 54.9134 52.3332C54.6914 52.237 54.3914 52.1476 54.0136 52.0647L52.9994 51.8459C52.0979 51.6504 51.3869 51.3239 50.8666 50.8665C50.3495 50.4058 50.0927 49.7778 50.096 48.9823C50.0927 48.336 50.265 47.7709 50.613 47.287C50.9643 46.7998 51.4499 46.4203 52.0697 46.1485C52.6928 45.8767 53.4071 45.7408 54.2125 45.7408C55.0344 45.7408 55.7454 45.8784 56.3453 46.1535C56.9452 46.4286 57.4075 46.8164 57.7323 47.3168C58.0605 47.814 58.2262 48.3957 58.2295 49.0619H55.5846Z" fill="black"/>
</g>
<defs>
<filter id="filter0_d_34_185" x="0" y="0" width="75" height="49.4121" filterUnits="userSpaceOnUse" color-interpolation-filters="sRGB">
<feFlood flood-opacity="0" result="BackgroundImageFix"/>
<feColorMatrix in="SourceAlpha" type="matrix" values="0 0 0 0 0 0 0 0 0 0 0 0 0 0 0 0 0 0 127 0" result="hardAlpha"/>
<feOffset dy="4"/>
<feGaussianBlur stdDeviation="2"/>
<feComposite in2="hardAlpha" operator="out"/>
<feColorMatrix type="matrix" values="0 0 0 0 0 0 0 0 0 0 0 0 0 0 0 0 0 0 0.25 0"/>
<feBlend mode="normal" in2="BackgroundImageFix" result="effect1_dropShadow_34_185"/>
<feBlend mode="normal" in="SourceGraphic" in2="effect1_dropShadow_34_185" result="shape"/>
</filter>
<filter id="filter1_d_34_185" x="11.4241" y="45.7408" width="50.9446" height="18.4403" filterUnits="userSpaceOnUse" color-interpolation-filters="sRGB">
<feFlood flood-opacity="0" result="BackgroundImageFix"/>
<feColorMatrix in="SourceAlpha" type="matrix" values="0 0 0 0 0 0 0 0 0 0 0 0 0 0 0 0 0 0 127 0" result="hardAlpha"/>
<feOffset dy="4"/>
<feGaussianBlur stdDeviation="2"/>
<feComposite in2="hardAlpha" operator="out"/>
<feColorMatrix type="matrix" values="0 0 0 0 0 0 0 0 0 0 0 0 0 0 0 0 0 0 0.25 0"/>
<feBlend mode="normal" in2="BackgroundImageFix" result="effect1_dropShadow_34_185"/>
<feBlend mode="normal" in="SourceGraphic" in2="effect1_dropShadow_34_185" result="shape"/>
</filter>
</defs>
</svg>
