<svg width="120" height="94" viewBox="0 0 120 94" fill="none" xmlns="http://www.w3.org/2000/svg">
<g filter="url(#filter0_d_74_556)">
<path d="M3.99999 46.6619C3.99999 52.0426 9.89998 57.2029 20.402 61.0076C30.9041 64.8123 45.1479 66.9497 60 66.9497C74.8521 66.9497 89.0959 64.8123 99.598 61.0076C110.1 57.2029 116 52.0426 116 46.6619L60 46.6619L3.99999 46.6619Z" fill="white"/>
<path d="M116 47C116 34.5348 110.1 22.5802 99.598 13.766C89.0959 4.95177 74.8521 9.41095e-07 60 0C45.1479 -9.41094e-07 30.9041 4.95177 20.402 13.766C9.89999 22.5802 4 34.5348 4 47L60 47H116Z" fill="white"/>
<path d="M107 44.1452C107 34.2937 102.048 24.8456 93.234 17.8796C84.4198 10.9135 72.4652 7 60 7C47.5348 7 35.5802 10.9135 26.766 17.8796C17.9518 24.8456 13 34.2936 13 44.1452L60 44.1452H107Z" fill="#A32287"/>
<path d="M13 43.7661C13 47.8876 17.9518 51.8404 26.766 54.7547C35.5802 57.6691 47.5348 59.3064 60 59.3064C72.4652 59.3064 84.4198 57.6691 93.234 54.7547C102.048 51.8404 107 47.8876 107 43.7661L60 43.7661L13 43.7661Z" fill="#A32287"/>
<ellipse cx="80.0226" cy="36.8253" rx="18.1051" ry="13.3126" transform="rotate(159.429 80.0226 36.8253)" fill="white"/>
<ellipse cx="40.7935" cy="37.623" rx="17" ry="12.5" transform="rotate(16.0509 40.7935 37.623)" fill="white"/>
<ellipse cx="40.7935" cy="37.623" rx="17" ry="12.5" transform="rotate(16.0509 40.7935 37.623)" fill="white"/>
</g>
<defs>
<filter id="filter0_d_74_556" x="0" y="0" width="120" height="102" filterUnits="userSpaceOnUse" color-interpolation-filters="sRGB">
<feFlood flood-opacity="0" result="BackgroundImageFix"/>
<feColorMatrix in="SourceAlpha" type="matrix" values="0 0 0 0 0 0 0 0 0 0 0 0 0 0 0 0 0 0 127 0" result="hardAlpha"/>
<feOffset dy="4"/>
<feGaussianBlur stdDeviation="2"/>
<feComposite in2="hardAlpha" operator="out"/>
<feColorMatrix type="matrix" values="0 0 0 0 0 0 0 0 0 0 0 0 0 0 0 0 0 0 0.25 0"/>
<feBlend mode="normal" in2="BackgroundImageFix" result="effect1_dropShadow_74_556"/>
<feBlend mode="normal" in="SourceGraphic" in2="effect1_dropShadow_74_556" result="shape"/>
</filter>
</defs>
</svg>
