<svg width="39" height="31" viewBox="0 0 39 31" fill="none" xmlns="http://www.w3.org/2000/svg">
<path d="M38.3838 15.7369C38.3838 11.7787 36.3943 7.98262 32.8528 5.18375C29.3114 2.38489 24.5082 0.8125 19.4999 0.8125C14.4916 0.8125 9.68837 2.38489 6.14694 5.18375C2.60552 7.98262 0.615968 11.7787 0.615967 15.7369L19.4999 15.7369H38.3838Z" fill="#B89E35"/>
<path d="M0.615939 15.5845C0.615939 17.2405 2.60549 18.8286 6.14691 19.9996C9.68834 21.1705 14.4915 21.8284 19.4999 21.8284C24.5082 21.8284 29.3114 21.1705 32.8528 19.9996C36.3942 18.8286 38.3838 17.2405 38.3838 15.5845L19.4999 15.5845L0.615939 15.5845Z" fill="#B89E35"/>
<ellipse cx="27.5447" cy="12.7958" rx="7.27438" ry="5.34881" transform="rotate(159.429 27.5447 12.7958)" fill="white"/>
<ellipse cx="11.7829" cy="13.1162" rx="6.83036" ry="5.02232" transform="rotate(16.0509 11.7829 13.1162)" fill="white"/>
</svg>
