<svg width="20" height="21" viewBox="0 0 20 21" fill="none" xmlns="http://www.w3.org/2000/svg">
<path d="M15.5 5.474L4.5 16.474M6.5 9.474V5.474M4.5 7.474H8.5M11.5 14.474H15.5M5.8 19.974H14.2C15.8802 19.974 16.7202 19.974 17.362 19.647C17.9265 19.3594 18.3854 18.9005 18.673 18.336C19 17.6942 19 16.8542 19 15.174V6.774C19 5.09384 19 4.25376 18.673 3.61203C18.3854 3.04754 17.9265 2.5886 17.362 2.30098C16.7202 1.974 15.8802 1.974 14.2 1.974H5.8C4.11984 1.974 3.27976 1.974 2.63803 2.30098C2.07354 2.5886 1.6146 3.04754 1.32698 3.61203C1 4.25376 1 5.09384 1 6.774V15.174C1 16.8542 1 17.6942 1.32698 18.336C1.6146 18.9005 2.07354 19.3594 2.63803 19.647C3.27976 19.974 4.11984 19.974 5.8 19.974Z" stroke="#7A1F40" stroke-width="2" stroke-linecap="round" stroke-linejoin="round"/>
</svg>
