<svg width="20" height="20" viewBox="0 0 20 20" fill="none" xmlns="http://www.w3.org/2000/svg">
<path d="M1 19H10M9 4.82683C9.63924 4.67876 10.3094 4.6 11 4.6C15.4183 4.6 19 7.82355 19 11.8C19 14.8216 16.9318 17.4085 14 18.4766M3.5 10.9H7.5C7.96466 10.9 8.19698 10.9 8.39018 10.9346C9.18356 11.0766 9.80376 11.6348 9.96157 12.3488C10 12.5227 10 12.7318 10 13.15C10 13.5682 10 13.7773 9.96157 13.9512C9.80376 14.6652 9.18356 15.2234 8.39018 15.3654C8.19698 15.4 7.96466 15.4 7.5 15.4H3.5C3.03534 15.4 2.80302 15.4 2.60982 15.3654C1.81644 15.2234 1.19624 14.6652 1.03843 13.9512C1 13.7773 1 13.5682 1 13.15C1 12.7318 1 12.5227 1.03843 12.3488C1.19624 11.6348 1.81644 11.0766 2.60982 10.9346C2.80302 10.9 3.03534 10.9 3.5 10.9ZM2 4.15V10.9H9V4.15C9 2.4103 7.433 1 5.5 1C3.567 1 2 2.4103 2 4.15Z" stroke="#1D6828" stroke-width="2" stroke-linecap="round" stroke-linejoin="round"/>
</svg>
