<svg width="22" height="21" viewBox="0 0 22 21" fill="none" xmlns="http://www.w3.org/2000/svg">
<path d="M11 19.3836L10.8999 19.2335C10.2053 18.1916 9.85798 17.6706 9.3991 17.2934C8.99286 16.9595 8.52476 16.709 8.02161 16.5562C7.45325 16.3836 6.82711 16.3836 5.57482 16.3836H4.2C3.07989 16.3836 2.51984 16.3836 2.09202 16.1656C1.71569 15.9739 1.40973 15.6679 1.21799 15.2916C1 14.8638 1 14.3037 1 13.1836V4.58361C1 3.4635 1 2.90345 1.21799 2.47562C1.40973 2.0993 1.71569 1.79334 2.09202 1.60159C2.51984 1.38361 3.07989 1.38361 4.2 1.38361H4.6C6.84021 1.38361 7.96031 1.38361 8.81596 1.81958C9.56861 2.20307 10.1805 2.815 10.564 3.56764C11 4.42329 11 5.5434 11 7.78361M11 19.3836V7.78361M11 19.3836L11.1001 19.2335C11.7947 18.1916 12.142 17.6706 12.6009 17.2934C13.0071 16.9595 13.4752 16.709 13.9784 16.5562C14.5467 16.3836 15.1729 16.3836 16.4252 16.3836H17.8C18.9201 16.3836 19.4802 16.3836 19.908 16.1656C20.2843 15.9739 20.5903 15.6679 20.782 15.2916C21 14.8638 21 14.3037 21 13.1836V4.58361C21 3.4635 21 2.90345 20.782 2.47562C20.5903 2.0993 20.2843 1.79334 19.908 1.60159C19.4802 1.38361 18.9201 1.38361 17.8 1.38361H17.4C15.1598 1.38361 14.0397 1.38361 13.184 1.81958C12.4314 2.20307 11.8195 2.815 11.436 3.56764C11 4.42329 11 5.5434 11 7.78361" stroke="#A32287" stroke-width="2" stroke-linecap="round" stroke-linejoin="round"/>
</svg>
