<svg width="22" height="21" viewBox="0 0 22 21" fill="none" xmlns="http://www.w3.org/2000/svg">
<path d="M19.5 19.4785H11.5M1 19.9441L6.54927 17.9564C6.90421 17.8293 7.08168 17.7657 7.24772 17.6827C7.3952 17.609 7.5358 17.5239 7.66804 17.4284C7.81692 17.3208 7.95137 17.1956 8.22028 16.9451L19.5 6.44067C20.6046 5.41201 20.6046 3.74424 19.5 2.71558C18.3955 1.68693 16.6046 1.68693 15.5 2.71558L4.22028 13.2201C3.95138 13.4705 3.81692 13.5957 3.70139 13.7343C3.59877 13.8575 3.5074 13.9884 3.42823 14.1258C3.33911 14.2804 3.27085 14.4457 3.13433 14.7762L1 19.9441ZM1 19.9441L3.05812 14.9608C3.2054 14.6042 3.27903 14.4259 3.40534 14.3443C3.51572 14.2729 3.6523 14.2459 3.7843 14.2694C3.93533 14.2962 4.08038 14.4313 4.37048 14.7015L6.62957 16.8053C6.91967 17.0754 7.06472 17.2105 7.09356 17.3512C7.11877 17.4741 7.08979 17.6013 7.01314 17.7041C6.92545 17.8217 6.73399 17.8903 6.35107 18.0274L1 19.9441Z" stroke="#B89E35" stroke-width="2" stroke-linecap="round" stroke-linejoin="round"/>
</svg>
